# File created by Blade
# Date/Time:  Wed Apr 08 17:20:14 2015
#---------------------------------------------------------
:version 1.10
:name HOM
:units
  mass 1.0
  length 1.000000
  angle deg
:documentation
     Acclaim Skeleton File
:root
   axis xyz
   order TX TY TZ RX RY RZ
   position 0.000000 0.000000 0.000000
   orientation 0 0 0
:bonedata
   begin
      id 1
      name Spine_dum
      direction 0.000000 1.000000 0.000000
      length 5.893853
      axis 0.0 0.0 0.0 xyz
   end
   begin
      id 2
      name LeftUpLeg_dum
      direction 1.000000 0.000000 0.000000
      length 3.697939
      axis 0.0 0.0 0.0 xyz
   end
   begin
      id 3
      name RightUpLeg_dum
      direction -1.000000 0.000000 0.000000
      length 3.697939
      axis 0.0 0.0 0.0 xyz
   end
   begin
      id 4
      name Spine
      direction 0.000000 1.000000 0.000000
      length 0.000000
      axis 0.0 0.0 0.0 xyz
      dof rx ry rz
   end
   begin
      id 5
      name Spine_dum1
      direction 0.000000 1.000000 0.000000
      length 16.447146
      axis 0.0 0.0 0.0 xyz
   end
   begin
      id 6
      name Spine_dum2
      direction 0.000000 1.000000 0.000000
      length 10.900383
      axis 0.0 0.0 0.0 xyz
   end
   begin
      id 7
      name Spine_dum3
      direction 0.000000 1.000000 0.000000
      length 10.900383
      axis 0.0 0.0 0.0 xyz
   end
   begin
      id 8
      name Head
      direction 0.000000 1.000000 0.000000
      length 4.527550
      axis 0.0 0.0 0.0 xyz
      dof rx ry rz
   end
   begin
      id 9
      name LeftShoulder
      direction 1.000000 0.000000 0.000000
      length 8.219464
      axis 0.0 0.0 -90.0 xyz
      dof rx ry rz
   end
   begin
      id 10
      name LeftArm
      direction 1.000000 0.000000 0.000000
      length 11.094937
      axis 0.0 0.0 -90.0 xyz
      dof rx ry rz
   end
   begin
      id 11
      name LeftForeArm
      direction 1.000000 0.000000 0.000000
      length 9.103875
      axis 0.0 0.0 -90.0 xyz
      dof ry rz rx
   end
   begin
      id 12
      name LeftHand
      direction 0.000000 0.000000 0.000000
      length 0.000000
      axis 0.0 0.0 -90.0 xyz
      dof rx ry rz
   end
   begin
      id 13
      name LeftHand_dum1
      direction 0.000000 0.000000 0.000000
      length 0.000000
      axis 0.0 0.0 -90.0 xyz
   end
   begin
      id 14
      name LeftHand_dum2
      direction 1.000000 0.000000 0.000000
      length 3.937000
      axis 0.0 0.0 -90.0 xyz
   end
   begin
      id 15
      name LeftHandThumb1
      direction 0.000000 0.000000 1.000000
      length 3.937000
      axis 0.0 0.0 -90.0 xyz
      dof rx rz ry
   end
   begin
      id 16
      name RightShoulder
      direction -1.000000 0.000000 0.000000
      length 8.219464
      axis 0.0 0.0 90.0 xyz
      dof rx ry rz
   end
   begin
      id 17
      name RightArm
      direction -1.000000 0.000000 0.000000
      length 11.094937
      axis 0.0 0.0 90.0 xyz
      dof rx ry rz
   end
   begin
      id 18
      name RightForeArm
      direction -1.000000 0.000000 0.000000
      length 9.103875
      axis 0.0 0.0 90.0 xyz
      dof ry rz rx
   end
   begin
      id 19
      name RightHand
      direction 0.000000 0.000000 0.000000
      length 0.000000
      axis 0.0 0.0 90.0 xyz
      dof rx ry rz
   end
   begin
      id 20
      name RightHand_dum1
      direction 0.000000 0.000000 0.000000
      length 0.000000
      axis 0.0 0.0 90.0 xyz
   end
   begin
      id 21
      name RightHand_dum2
      direction -1.000000 0.000000 0.000000
      length 3.937000
      axis 0.0 0.0 90.0 xyz
   end
   begin
      id 22
      name RightHandThumb1
      direction 0.000000 0.000000 1.000000
      length 3.937000
      axis 0.0 0.0 90.0 xyz
      dof rx rz ry
   end
   begin
      id 23
      name LeftUpLeg
      direction 0.000000 -1.000000 0.000000
      length 16.181467
      axis 0.0 0.0 0.0 xyz
      dof rx ry rz
   end
   begin
      id 24
      name LeftLeg
      direction 0.000000 -1.000000 0.000000
      length 16.501392
      axis 0.0 0.0 0.0 xyz
      dof rx ry rz
   end
   begin
      id 25
      name LeftFoot
      direction 0.000000 -0.258819 0.965926
      length 6.408245
      axis 15.0 0.0 0.0 xyz
      dof rx ry rz
   end
   begin
      id 26
      name LeftToeBase
      direction 0.000000 0.000000 1.000000
      length 2.952750
      axis 0.0 0.0 0.0 xyz
      dof rx ry rz
   end
   begin
      id 27
      name RightUpLeg
      direction 0.000000 -1.000000 0.000000
      length 16.181467
      axis 0.0 0.0 0.0 xyz
      dof rx ry rz
   end
   begin
      id 28
      name RightLeg
      direction 0.000000 -1.000000 0.000000
      length 16.501392
      axis 0.0 0.0 0.0 xyz
      dof rx ry rz
   end
   begin
      id 29
      name RightFoot
      direction 0.000000 -0.258819 0.965926
      length 6.408245
      axis 15.0 0.0 0.0 xyz
      dof rx ry rz
   end
   begin
      id 30
      name RightToeBase
      direction 0.000000 0.000000 1.000000
      length 2.952750
      axis 0.0 0.0 0.0 xyz
      dof rx ry rz
   end
:hierarchy
   begin
      root Spine_dum LeftUpLeg_dum RightUpLeg_dum
      Spine_dum Spine
      LeftUpLeg_dum LeftUpLeg
      RightUpLeg_dum RightUpLeg
      Spine Spine_dum1 Spine_dum2 Spine_dum3
      Spine_dum1 Head
      Spine_dum2 LeftShoulder
      Spine_dum3 RightShoulder
      LeftShoulder LeftArm
      LeftArm LeftForeArm
      LeftForeArm LeftHand
      LeftHand LeftHand_dum1 LeftHand_dum2
      LeftHand_dum1 LeftHandThumb1
      RightShoulder RightArm
      RightArm RightForeArm
      RightForeArm RightHand
      RightHand RightHand_dum1 RightHand_dum2
      RightHand_dum1 RightHandThumb1
      LeftUpLeg LeftLeg
      LeftLeg LeftFoot
      LeftFoot LeftToeBase
      RightUpLeg RightLeg
      RightLeg RightFoot
      RightFoot RightToeBase
   end

# File created by Blade
# Date/Time:  Wed Apr 08 17:19:54 2015
# Frame Rate: 120.000 fps
#------------------------------------------------------
:FULLY-SPECIFIED
:DEGREES
54
root 6.162332 36.089286 -3.133112 -166.712133 -87.098484 161.158826
Spine 13.607113 1.655949 0.798803
Head 10.004471 11.112764 3.198949
LeftShoulder -6.237379 11.526589 24.739059
LeftArm 12.645284 -38.488750 -46.445753
LeftForeArm 12.540337 0.000000 9.229342
LeftHand -13.295929 -0.000000 -8.504192
LeftHandThumb1 -26.253704 0.000000 33.147579
RightShoulder -22.681186 -39.975160 -9.578187
RightArm 52.887758 42.563856 54.753162
RightForeArm 6.986123 -0.000000 4.768125
RightHand -2.984574 -0.000000 7.664414
RightHandThumb1 -24.326973 -0.000000 -32.862282
LeftUpLeg 7.520280 14.058771 11.253766
LeftLeg 11.130240 -0.000000 -0.000000
LeftFoot -7.611158 5.295169 -14.691414
LeftToeBase 3.716752 -0.000000 -0.000000
RightUpLeg 9.355310 -7.718447 -4.361645
RightLeg 4.824100 -0.000000 -0.000000
RightFoot -13.225251 -3.623277 15.264323
RightToeBase 10.341205 -0.000000 -0.000000
55
root 6.209697 36.100452 -3.197250 -162.670060 -87.144168 157.237632
Spine 13.666109 1.674772 0.732510
Head 9.913516 11.312912 3.044894
LeftShoulder -6.282643 11.717017 24.496399
LeftArm 12.694495 -38.256405 -46.880635
LeftForeArm 12.796428 -0.000000 10.073471
LeftHand -13.232311 0.000000 -8.463147
LeftHandThumb1 -26.253704 0.000000 33.147579
RightShoulder -22.736655 -40.079997 -9.427055
RightArm 52.751192 42.197620 54.619018
RightForeArm 6.888508 0.000000 5.352597
RightHand -2.976120 -0.000000 7.756357
RightHandThumb1 -24.326973 -0.000000 -32.862282
LeftUpLeg 7.020856 13.973996 11.096776
LeftLeg 11.570604 -0.000000 -0.000000
LeftFoot -7.383955 5.393863 -14.582023
LeftToeBase 3.461271 -0.000000 -0.000000
RightUpLeg 9.185347 -7.800611 -4.399893
RightLeg 4.801606 -0.000000 -0.000000
RightFoot -13.227818 -3.671396 15.207951
RightToeBase 10.350673 -0.000000 -0.000000
56
root 6.256950 36.112028 -3.260451 -158.541094 -87.179668 153.240658
Spine 13.707156 1.681641 0.667841
Head 9.850000 11.500597 2.894723
LeftShoulder -6.352159 11.956498 24.223636
LeftArm 12.814086 -38.022620 -47.314955
LeftForeArm 13.311077 -0.000000 10.890301
LeftHand -13.180457 -0.000000 -8.662600
LeftHandThumb1 -26.253704 0.000000 33.147579
RightShoulder -22.796772 -40.193764 -9.276337
RightArm 52.699188 41.827934 54.554458
RightForeArm 6.724619 -0.000000 5.895895
RightHand -2.976324 -0.000000 7.842705
RightHandThumb1 -24.326973 -0.000000 -32.862282
LeftUpLeg 6.498073 13.898974 10.938421
LeftLeg 12.033407 -0.000000 -0.000000
LeftFoot -7.162833 5.515509 -14.391748
LeftToeBase 3.254312 -0.000000 -0.000000
RightUpLeg 9.010839 -7.914247 -4.438948
RightLeg 4.768828 -0.000000 -0.000000
RightFoot -13.216715 -3.699740 15.158663
RightToeBase 10.382830 -0.000000 -0.000000
57
root 6.305471 36.124431 -3.322787 -153.751726 -87.226855 148.569561
Spine 13.767027 1.668067 0.587084
Head 9.788838 11.706351 2.746265
LeftShoulder -6.412061 12.164557 23.978747
LeftArm 12.943101 -37.720277 -47.779192
LeftForeArm 13.546729 0.000000 11.691864
LeftHand -13.115804 -0.000000 -8.657795
LeftHandThumb1 -26.253704 0.000000 33.147579
RightShoulder -22.860420 -40.323293 -9.132821
RightArm 52.665079 41.430358 54.518659
RightForeArm 6.560539 -0.000000 6.403286
RightHand -2.856656 -0.000000 7.896070
RightHandThumb1 -24.326973 -0.000000 -32.862282
LeftUpLeg 5.941216 13.828210 10.761384
LeftLeg 12.562510 -0.000000 -0.000000
LeftFoot -6.972967 5.644448 -14.128461
LeftToeBase 3.078824 -0.000000 -0.000000
RightUpLeg 8.868037 -7.973966 -4.480555
RightLeg 4.709613 -0.000000 -0.000000
RightFoot -13.216205 -3.798923 15.132006
RightToeBase 10.442825 -0.000000 -0.000000
58
root 6.353532 36.137464 -3.382011 -148.281131 -87.269564 143.220791
Spine 13.812090 1.657776 0.496041
Head 9.756182 11.838682 2.609418
LeftShoulder -6.439932 12.325314 23.731528
LeftArm 13.018468 -37.579312 -48.265844
LeftForeArm 14.215816 -0.000000 12.590077
LeftHand -13.068498 0.000000 -8.856635
LeftHandThumb1 -26.253704 0.000000 33.147579
RightShoulder -22.987862 -40.498009 -8.961293
RightArm 53.118207 41.296968 55.068876
RightForeArm 5.981709 -0.000000 6.758133
RightHand -2.758724 -0.000000 8.194602
RightHandThumb1 -24.326973 -0.000000 -32.862282
LeftUpLeg 5.370517 13.670246 10.544097
LeftLeg 13.097736 -0.000000 -0.000000
LeftFoot -6.801683 5.832444 -13.824802
LeftToeBase 2.723676 -0.000000 -0.000000
RightUpLeg 8.725901 -8.120759 -4.554791
RightLeg 4.649438 -0.000000 -0.000000
RightFoot -13.208219 -3.853030 15.094464
RightToeBase 10.482789 -0.000000 -0.000000
59
root 6.399514 36.150551 -3.438133 -142.403114 -87.287965 137.454718
Spine 13.866662 1.645455 0.394426
Head 9.722267 11.977451 2.477905
LeftShoulder -6.474350 12.464185 23.517417
LeftArm 13.137485 -37.315540 -48.778581
LeftForeArm 14.680972 0.000000 13.384405
LeftHand -12.993290 -0.000000 -8.847717
LeftHandThumb1 -26.253704 0.000000 33.147579
RightShoulder -23.065948 -40.602349 -8.795177
RightArm 53.026173 40.841565 54.912912
RightForeArm 5.992114 -0.000000 7.159034
RightHand -2.664139 -0.000000 8.316636
RightHandThumb1 -24.326973 -0.000000 -32.862282
LeftUpLeg 4.803041 13.495825 10.299663
LeftLeg 13.643194 -0.000000 -0.000000
LeftFoot -6.641166 6.072063 -13.425658
LeftToeBase 2.009750 -0.000000 -0.000000
RightUpLeg 8.600952 -8.279177 -4.650904
RightLeg 4.588352 -0.000000 -0.000000
RightFoot -13.196833 -3.875437 15.090832
RightToeBase 10.483204 -0.000000 -0.000000
60
root 6.445434 36.163765 -3.493410 -136.512751 -87.284081 131.667884
Spine 13.920571 1.629931 0.285484
Head 9.718375 12.105860 2.386512
LeftShoulder -6.510413 12.621191 23.325735
LeftArm 13.257881 -36.987805 -49.315600
LeftForeArm 15.258707 0.000000 14.211540
LeftHand -13.011603 -0.000000 -8.931698
LeftHandThumb1 -26.253704 0.000000 33.147579
RightShoulder -23.132996 -40.735343 -8.616983
RightArm 52.959835 40.395091 54.753374
RightForeArm 5.962241 -0.000000 7.508466
RightHand -2.539341 -0.000000 8.477935
RightHandThumb1 -24.326973 -0.000000 -32.862282
LeftUpLeg 4.208203 13.372095 10.060400
LeftLeg 14.261386 -0.000000 -0.000000
LeftFoot -6.517175 6.290012 -12.875700
LeftToeBase 1.166954 -0.000000 -0.000000
RightUpLeg 8.479374 -8.424122 -4.741338
RightLeg 4.534647 -0.000000 -0.000000
RightFoot -13.178859 -3.921318 15.071459
RightToeBase 10.517698 -0.000000 -0.000000
61
root 6.490334 36.176807 -3.544196 -130.632426 -87.250433 125.900343
Spine 13.963838 1.635528 0.189149
Head 9.705347 12.201859 2.266465
LeftShoulder -6.523567 12.691287 23.131235
LeftArm 13.301622 -36.612034 -49.806110
LeftForeArm 15.957820 -0.000000 15.034587
LeftHand -13.057311 -0.000000 -9.092549
LeftHandThumb1 -26.253704 0.000000 33.147579
RightShoulder -23.205120 -40.800666 -8.457434
RightArm 52.891705 39.945252 54.610083
RightForeArm 5.804507 0.000000 7.812610
RightHand -2.540249 -0.000000 8.698343
RightHandThumb1 -24.326973 -0.000000 -32.862282
LeftUpLeg 3.589159 13.261928 9.791501
LeftLeg 14.917094 -0.000000 -0.000000
LeftFoot -6.449319 6.561131 -12.334024
LeftToeBase 0.077800 -0.000000 -0.000000
RightUpLeg 8.335826 -8.601416 -4.847986
RightLeg 4.509700 -0.000000 -0.000000
RightFoot -13.172501 -3.930821 15.044899
RightToeBase 10.562411 -0.000000 -0.000000
62
root 6.533661 36.190169 -3.592272 -125.238728 -87.186146 120.601968
Spine 14.014348 1.644610 0.099014
Head 9.721808 12.309869 2.145523
LeftShoulder -6.534096 12.837380 22.932971
LeftArm 13.369499 -36.099458 -50.277015
LeftForeArm 16.118340 -0.000000 15.827450
LeftHand -13.159092 -0.000000 -8.964326
LeftHandThumb1 -26.253704 0.000000 33.147579
RightShoulder -23.255838 -40.903933 -8.315012
RightArm 52.758068 39.409301 54.336451
RightForeArm 5.744636 -0.000000 8.107984
RightHand -2.540585 -0.000000 8.797531
RightHandThumb1 -24.326973 -0.000000 -32.862282
LeftUpLeg 2.988624 13.164044 9.516567
LeftLeg 15.598810 -0.000000 -0.000000
LeftFoot -6.409287 6.836188 -11.773892
LeftToeBase -1.217816 -0.000000 0.000000
RightUpLeg 8.205616 -8.750050 -4.956949
RightLeg 4.493690 -0.000000 -0.000000
RightFoot -13.162478 -3.949087 15.056035
RightToeBase 10.557493 -0.000000 -0.000000
63
root 6.574305 36.203277 -3.637606 -119.804559 -87.116164 115.237266
Spine 14.095613 1.649933 0.016779
Head 9.706987 12.396680 2.034032
LeftShoulder -6.537490 12.976057 22.737208
LeftArm 13.432349 -35.595867 -50.745225
LeftForeArm 16.382027 0.000000 16.621917
LeftHand -13.118370 -0.000000 -9.040564
LeftHandThumb1 -26.253704 0.000000 33.147579
RightShoulder -23.309403 -41.004809 -8.164407
RightArm 52.540072 38.818520 53.946894
RightForeArm 5.726122 -0.000000 8.406579
RightHand -2.545285 -0.000000 8.949180
RightHandThumb1 -24.326973 -0.000000 -32.862282
LeftUpLeg 2.382108 13.102682 9.237100
LeftLeg 16.343620 -0.000000 -0.000000
LeftFoot -6.415745 7.119113 -11.295097
LeftToeBase -2.486208 -0.000000 0.000000
RightUpLeg 8.108017 -8.948651 -5.073120
RightLeg 4.480871 -0.000000 -0.000000
RightFoot -13.146937 -3.935342 15.036830
RightToeBase 10.584462 -0.000000 -0.000000
